<svg width="221" height="28" viewBox="0 0 221 28" fill="none" xmlns="http://www.w3.org/2000/svg">
<path d="M11.5675 4.28749C11.7275 3.90417 12.2725 3.90417 12.4325 4.28749L14.8634 10.1117C14.9309 10.2733 15.0834 10.3837 15.2585 10.3977L21.5684 10.9017C21.9837 10.9349 22.1521 11.4514 21.8357 11.7214L17.0282 15.8251C16.8948 15.9389 16.8365 16.1176 16.8773 16.2878L18.3461 22.4235C18.4427 22.8274 18.0019 23.1465 17.6463 22.9301L12.2441 19.6421C12.0943 19.5509 11.9057 19.5509 11.7559 19.6421L6.35369 22.9301C5.99814 23.1465 5.55728 22.8274 5.65395 22.4235L7.12271 16.2878C7.16347 16.1176 7.10521 15.9389 6.97182 15.8251L2.16433 11.7214C1.84793 11.4514 2.01632 10.9349 2.43161 10.9017L8.74153 10.3977C8.9166 10.3837 9.06911 10.2733 9.13656 10.1117L11.5675 4.28749Z" fill="#FFBC1F"/>
<path d="M47.5675 4.28749C47.7275 3.90417 48.2725 3.90417 48.4325 4.28749L50.8634 10.1117C50.9309 10.2733 51.0834 10.3837 51.2585 10.3977L57.5684 10.9017C57.9837 10.9349 58.1521 11.4514 57.8357 11.7214L53.0282 15.8251C52.8948 15.9389 52.8365 16.1176 52.8773 16.2878L54.3461 22.4235C54.4427 22.8274 54.0019 23.1465 53.6463 22.9301L48.2441 19.6421C48.0943 19.5509 47.9057 19.5509 47.7559 19.6421L42.3537 22.9301C41.9981 23.1465 41.5573 22.8274 41.6539 22.4235L43.1227 16.2878C43.1635 16.1176 43.1052 15.9389 42.9718 15.8251L38.1643 11.7214C37.8479 11.4514 38.0163 10.9349 38.4316 10.9017L44.7415 10.3977C44.9166 10.3837 45.0691 10.2733 45.1366 10.1117L47.5675 4.28749Z" fill="#FFBC1F"/>
<path d="M83.5675 4.28749C83.7275 3.90417 84.2725 3.90417 84.4325 4.28749L86.8634 10.1117C86.9309 10.2733 87.0834 10.3837 87.2585 10.3977L93.5684 10.9017C93.9837 10.9349 94.1521 11.4514 93.8357 11.7214L89.0282 15.8251C88.8948 15.9389 88.8365 16.1176 88.8773 16.2878L90.3461 22.4235C90.4427 22.8274 90.0019 23.1465 89.6463 22.9301L84.2441 19.6421C84.0943 19.5509 83.9057 19.5509 83.7559 19.6421L78.3537 22.9301C77.9981 23.1465 77.5573 22.8274 77.6539 22.4235L79.1227 16.2878C79.1635 16.1176 79.1052 15.9389 78.9718 15.8251L74.1643 11.7214C73.8479 11.4514 74.0163 10.9349 74.4316 10.9017L80.7415 10.3977C80.9166 10.3837 81.0691 10.2733 81.1366 10.1117L83.5675 4.28749Z" fill="#FFBC1F"/>
<path d="M119.568 4.28749C119.728 3.90417 120.272 3.90417 120.432 4.28749L122.863 10.1117C122.931 10.2733 123.083 10.3837 123.258 10.3977L129.568 10.9017C129.984 10.9349 130.152 11.4514 129.836 11.7214L125.028 15.8251C124.895 15.9389 124.837 16.1176 124.877 16.2878L126.346 22.4235C126.443 22.8274 126.002 23.1465 125.646 22.9301L120.244 19.6421C120.094 19.5509 119.906 19.5509 119.756 19.6421L114.354 22.9301C113.998 23.1465 113.557 22.8274 113.654 22.4235L115.123 16.2878C115.163 16.1176 115.105 15.9389 114.972 15.8251L110.164 11.7214C109.848 11.4514 110.016 10.9349 110.432 10.9017L116.742 10.3977C116.917 10.3837 117.069 10.2733 117.137 10.1117L119.568 4.28749Z" fill="#FFBC1F"/>
<path d="M153.598 10.3043L156 4.54946L158.402 10.3043C158.542 10.6394 158.858 10.8672 159.219 10.8961L165.449 11.3938L160.704 15.4448C160.428 15.6804 160.306 16.0508 160.391 16.4042L161.842 22.4636L156.504 19.215C156.195 19.0266 155.805 19.0266 155.496 19.215L150.158 22.4636L151.609 16.4042C151.694 16.0508 151.572 15.6804 151.296 15.4448L146.551 11.3938L152.781 10.8961C153.142 10.8672 153.458 10.6394 153.598 10.3043Z" stroke="#FFBC1F"/>
<path d="M192.558 17.354V15.392L198.498 7.4H201.558L195.744 15.392L194.322 14.978H204.24V17.354H192.558ZM199.344 20V17.354L199.434 14.978V12.62H202.188V20H199.344ZM207.22 20.144C206.74 20.144 206.326 19.982 205.978 19.658C205.642 19.322 205.474 18.896 205.474 18.38C205.474 17.864 205.642 17.45 205.978 17.138C206.326 16.814 206.74 16.652 207.22 16.652C207.712 16.652 208.126 16.814 208.462 17.138C208.798 17.45 208.966 17.864 208.966 18.38C208.966 18.896 208.798 19.322 208.462 19.658C208.126 19.982 207.712 20.144 207.22 20.144ZM214.636 20.216C213.76 20.216 212.89 20.102 212.026 19.874C211.162 19.634 210.43 19.298 209.83 18.866L210.964 16.634C211.444 16.982 212.002 17.258 212.638 17.462C213.274 17.666 213.916 17.768 214.564 17.768C215.296 17.768 215.872 17.624 216.292 17.336C216.712 17.048 216.922 16.652 216.922 16.148C216.922 15.668 216.736 15.29 216.364 15.014C215.992 14.738 215.392 14.6 214.564 14.6H213.232V12.674L216.742 8.696L217.066 9.74H210.46V7.4H219.28V9.29L215.788 13.268L214.312 12.422H215.158C216.706 12.422 217.876 12.77 218.668 13.466C219.46 14.162 219.856 15.056 219.856 16.148C219.856 16.856 219.67 17.522 219.298 18.146C218.926 18.758 218.356 19.256 217.588 19.64C216.82 20.024 215.836 20.216 214.636 20.216Z" fill="#363636"/>
</svg>
